<svg width="810" height="238" viewBox="0 0 810 238" fill="none" xmlns="http://www.w3.org/2000/svg">
<g clip-path="url(#clip0_227_1561)">
<path d="M0.446289 184.689V49.9902H25.2868V83.2276H78.6415C83.0731 83.2276 87.1549 84.3938 90.8868 86.7262C94.6187 88.9421 97.5926 91.9159 99.8084 95.6478C102.141 99.3798 103.307 103.462 103.307 107.893V184.689H78.4666V109.118C78.4666 108.884 78.3499 108.651 78.1167 108.418C78.0001 108.185 77.7668 108.068 77.417 108.068H26.3364C26.1032 108.068 25.8699 108.185 25.6367 108.418C25.4034 108.651 25.2868 108.884 25.2868 109.118V184.689H0.446289ZM141.437 184.689C137.005 184.689 132.924 183.581 129.192 181.365C125.46 179.033 122.428 176.001 120.095 172.269C117.879 168.537 116.771 164.455 116.771 160.023V107.893C116.771 103.462 117.879 99.3798 120.095 95.6478C122.428 91.9159 125.46 88.9421 129.192 86.7262C132.924 84.3938 137.005 83.2276 141.437 83.2276H194.967C199.515 83.2276 203.655 84.3938 207.387 86.7262C211.119 88.9421 214.093 91.9159 216.309 95.6478C218.524 99.3798 219.632 103.462 219.632 107.893V160.023C219.632 164.455 218.524 168.537 216.309 172.269C214.093 176.001 211.119 179.033 207.387 181.365C203.655 183.581 199.515 184.689 194.967 184.689H141.437ZM142.662 159.848H193.742C193.975 159.848 194.209 159.732 194.442 159.499C194.675 159.265 194.792 159.032 194.792 158.799V109.118C194.792 108.884 194.675 108.651 194.442 108.418C194.209 108.185 193.975 108.068 193.742 108.068H142.662C142.428 108.068 142.195 108.185 141.962 108.418C141.729 108.651 141.612 108.884 141.612 109.118V158.799C141.612 159.032 141.729 159.265 141.962 159.499C142.195 159.732 142.428 159.848 142.662 159.848ZM259.838 184.689C255.29 184.689 251.149 183.581 247.418 181.365C243.686 179.033 240.653 176.001 238.321 172.269C236.105 168.537 234.997 164.455 234.997 160.023V52.6142H259.838V83.2276H298.498V108.068H259.838V158.799C259.838 159.032 259.954 159.265 260.188 159.499C260.421 159.732 260.654 159.848 260.887 159.848H298.498V184.689H259.838Z" fill="white"/>
<path d="M362.121 184.689V58.7369H457.985C462.533 58.7369 466.673 59.9031 470.405 62.2355C474.253 64.4514 477.344 67.4835 479.676 71.3321C482.009 75.064 483.175 79.2624 483.175 83.9273V108.068C483.175 109.584 483.058 111.042 482.825 112.441C482.592 113.724 482.242 115.007 481.776 116.29C483.641 118.739 485.158 121.421 486.324 124.337C487.49 127.136 488.073 129.993 488.073 132.909V159.498C488.073 164.163 486.907 168.42 484.574 172.269C482.242 176.001 479.152 179.033 475.303 181.365C471.571 183.581 467.373 184.689 462.708 184.689H362.121ZM388.361 159.324H461.483C461.833 159.324 462.066 159.265 462.183 159.149C462.416 158.915 462.533 158.624 462.533 158.274V134.308C462.533 134.075 462.416 133.842 462.183 133.608C462.066 133.375 461.833 133.258 461.483 133.258H388.361C388.011 133.258 387.72 133.375 387.486 133.608C387.37 133.842 387.312 134.075 387.312 134.308V158.274C387.312 158.624 387.37 158.915 387.486 159.149C387.72 159.265 388.011 159.324 388.361 159.324ZM388.361 107.893H456.585C456.818 107.893 457.052 107.835 457.285 107.718C457.518 107.485 457.635 107.252 457.635 107.018V85.1518C457.635 84.8019 457.518 84.5687 457.285 84.4521C457.052 84.2188 456.818 84.1022 456.585 84.1022H388.361C388.011 84.1022 387.72 84.2188 387.486 84.4521C387.37 84.5687 387.312 84.8019 387.312 85.1518V107.018C387.312 107.252 387.37 107.485 387.486 107.718C387.72 107.835 388.011 107.893 388.361 107.893ZM531.987 184.689C527.322 184.689 523.065 183.581 519.217 181.365C515.485 179.033 512.453 176.001 510.12 172.269C507.904 168.42 506.796 164.163 506.796 159.498V83.9273C506.796 79.2624 507.904 75.064 510.12 71.3321C512.453 67.4835 515.485 64.4514 519.217 62.2355C523.065 59.9031 527.322 58.7369 531.987 58.7369H607.558C612.106 58.7369 616.246 59.9031 619.978 62.2355C623.827 64.4514 626.917 67.4835 629.25 71.3321C631.582 75.064 632.748 79.2624 632.748 83.9273V159.498C632.748 164.163 631.582 168.42 629.25 172.269C626.917 176.001 623.827 179.033 619.978 181.365C616.246 183.581 612.106 184.689 607.558 184.689H531.987ZM533.036 159.324H606.159C606.508 159.324 606.742 159.265 606.858 159.149C607.092 158.915 607.208 158.624 607.208 158.274V85.1518C607.208 84.8019 607.092 84.5687 606.858 84.4521C606.742 84.2188 606.508 84.1022 606.159 84.1022H533.036C532.687 84.1022 532.395 84.2188 532.162 84.4521C532.045 84.5687 531.987 84.8019 531.987 85.1518V158.274C531.987 158.624 532.045 158.915 532.162 159.149C532.395 159.265 532.687 159.324 533.036 159.324ZM644.626 184.689V176.817L690.808 121.713L644.626 66.6089V58.7369H671.391L707.602 101.77L743.638 58.7369H770.228V66.6089L724.045 121.713L770.403 176.642V184.689H743.638L707.252 141.83L671.391 184.689H644.626Z" fill="white"/>
<path d="M800.067 228.6V9.93311H329.934V228.6H800.067Z" stroke="white" stroke-width="18"/>
</g>
<defs>
<clipPath id="clip0_227_1561">
<rect width="810" height="238" fill="white"/>
</clipPath>
</defs>
</svg>
