<svg width="54" height="54" viewBox="0 0 54 54" fill="none" xmlns="http://www.w3.org/2000/svg">
<g clip-path="url(#clip0_227_1923)">
<path d="M11.25 9H20.25L24.75 20.25L19.125 23.625C21.5347 28.5109 25.4891 32.4653 30.375 34.875L33.75 29.25L45 33.75V42.75C45 43.9435 44.5259 45.0881 43.682 45.932C42.8381 46.7759 41.6935 47.25 40.5 47.25C31.7233 46.7166 23.4453 42.9896 17.2279 36.7721C11.0104 30.5547 7.28336 22.2767 6.75 13.5C6.75 12.3065 7.22411 11.1619 8.06802 10.318C8.91193 9.47411 10.0565 9 11.25 9Z" stroke="black" stroke-width="4" stroke-linecap="round" stroke-linejoin="round"/>
<path d="M33.75 15.75C34.9435 15.75 36.0881 16.2241 36.932 17.068C37.7759 17.9119 38.25 19.0565 38.25 20.25" stroke="black" stroke-width="4" stroke-linecap="round" stroke-linejoin="round"/>
<path d="M33.75 6.75C37.3304 6.75 40.7642 8.17232 43.2959 10.7041C45.8277 13.2358 47.25 16.6696 47.25 20.25" stroke="black" stroke-width="4" stroke-linecap="round" stroke-linejoin="round"/>
</g>
<defs>
<clipPath id="clip0_227_1923">
<rect width="54" height="54" fill="white"/>
</clipPath>
</defs>
</svg>
