<svg width="36" height="36" viewBox="0 0 36 36" fill="none" xmlns="http://www.w3.org/2000/svg">
<g clip-path="url(#clip0_357_812)">
<path d="M7.49972 10.7997C7.49972 9.9245 7.84739 9.08513 8.46626 8.46626C9.08513 7.84739 9.9245 7.49972 10.7997 7.49972H12.2997C13.1711 7.49922 14.0069 7.15412 14.6247 6.53972L15.6747 5.48972C15.9814 5.18132 16.346 4.93658 16.7476 4.76958C17.1492 4.60257 17.5798 4.5166 18.0147 4.5166C18.4496 4.5166 18.8803 4.60257 19.2819 4.76958C19.6834 4.93658 20.048 5.18132 20.3547 5.48972L21.4047 6.53972C22.0227 7.15472 22.8597 7.49972 23.7297 7.49972H25.2297C26.1049 7.49972 26.9443 7.84739 27.5632 8.46626C28.182 9.08513 28.5297 9.9245 28.5297 10.7997V12.2997C28.5297 13.1697 28.8747 14.0067 29.4897 14.6247L30.5397 15.6747C30.8481 15.9814 31.0929 16.346 31.2599 16.7476C31.4269 17.1492 31.5128 17.5798 31.5128 18.0147C31.5128 18.4496 31.4269 18.8803 31.2599 19.2819C31.0929 19.6834 30.8481 20.048 30.5397 20.3547L29.4897 21.4047C28.8753 22.0226 28.5302 22.8584 28.5297 23.7297V25.2297C28.5297 26.1049 28.182 26.9443 27.5632 27.5632C26.9443 28.182 26.1049 28.5297 25.2297 28.5297H23.7297C22.8584 28.5302 22.0226 28.8753 21.4047 29.4897L20.3547 30.5397C20.048 30.8481 19.6834 31.0929 19.2819 31.2599C18.8803 31.4269 18.4496 31.5128 18.0147 31.5128C17.5798 31.5128 17.1492 31.4269 16.7476 31.2599C16.346 31.0929 15.9814 30.8481 15.6747 30.5397L14.6247 29.4897C14.0069 28.8753 13.1711 28.5302 12.2997 28.5297H10.7997C9.9245 28.5297 9.08513 28.182 8.46626 27.5632C7.84739 26.9443 7.49972 26.1049 7.49972 25.2297V23.7297C7.49922 22.8584 7.15412 22.0226 6.53972 21.4047L5.48972 20.3547C5.18132 20.048 4.93658 19.6834 4.76958 19.2819C4.60257 18.8803 4.5166 18.4496 4.5166 18.0147C4.5166 17.5798 4.60257 17.1492 4.76958 16.7476C4.93658 16.346 5.18132 15.9814 5.48972 15.6747L6.53972 14.6247C7.15412 14.0069 7.49922 13.1711 7.49972 12.2997V10.7997Z" stroke="black" stroke-width="3" stroke-linecap="round" stroke-linejoin="round"/>
<path d="M13.5 18L16.5 21L22.5 15" stroke="black" stroke-width="3" stroke-linecap="round" stroke-linejoin="round"/>
</g>
<defs>
<clipPath id="clip0_357_812">
<rect width="36" height="36" fill="white"/>
</clipPath>
</defs>
</svg>
