<svg width="16" height="17" viewBox="0 0 16 17" fill="none" xmlns="http://www.w3.org/2000/svg">
<g clip-path="url(#clip0_358_1114)">
<path d="M2 14.5005L3.1 11.9671C2.25844 10.7725 1.88178 9.31182 2.0407 7.85921C2.19961 6.40659 2.88319 5.06189 3.96314 4.07748C5.04309 3.09307 6.44517 2.53661 7.90625 2.51253C9.36734 2.48846 10.787 2.99842 11.8988 3.94672C13.0106 4.89501 13.7381 6.21645 13.9448 7.66305C14.1515 9.10964 13.8231 10.5819 13.0214 11.8036C12.2197 13.0254 10.9996 13.9125 9.59026 14.2985C8.18089 14.6846 6.67908 14.5431 5.36667 13.9005L2 14.5005Z" stroke="black" stroke-width="2" stroke-linecap="round" stroke-linejoin="round"/>
<path d="M6 7.16699C6 7.2554 6.03512 7.34018 6.09763 7.40269C6.16014 7.46521 6.24493 7.50033 6.33333 7.50033C6.42174 7.50033 6.50652 7.46521 6.56904 7.40269C6.63155 7.34018 6.66667 7.2554 6.66667 7.16699V6.50033C6.66667 6.41192 6.63155 6.32714 6.56904 6.26462C6.50652 6.20211 6.42174 6.16699 6.33333 6.16699C6.24493 6.16699 6.16014 6.20211 6.09763 6.26462C6.03512 6.32714 6 6.41192 6 6.50033V7.16699ZM6 7.16699C6 8.05105 6.35119 8.89889 6.97631 9.52402C7.60143 10.1491 8.44928 10.5003 9.33333 10.5003M9.33333 10.5003H10C10.0884 10.5003 10.1732 10.4652 10.2357 10.4027C10.2982 10.3402 10.3333 10.2554 10.3333 10.167C10.3333 10.0786 10.2982 9.9938 10.2357 9.93129C10.1732 9.86878 10.0884 9.83366 10 9.83366H9.33333C9.24493 9.83366 9.16014 9.86878 9.09763 9.93129C9.03512 9.9938 9 10.0786 9 10.167C9 10.2554 9.03512 10.3402 9.09763 10.4027C9.16014 10.4652 9.24493 10.5003 9.33333 10.5003Z" stroke="black" stroke-width="2" stroke-linecap="round" stroke-linejoin="round"/>
</g>
<defs>
<clipPath id="clip0_358_1114">
<rect width="16" height="16" fill="white" transform="translate(0 0.5)"/>
</clipPath>
</defs>
</svg>
