<svg width="20" height="13" viewBox="0 0 20 13" fill="none" xmlns="http://www.w3.org/2000/svg">
<path d="M18.569 0.786133C19.7861 0.786133 20.4219 2.19473 19.6876 3.10475L19.579 3.22476L11.0074 11.7964C10.7614 12.0423 10.4341 12.1901 10.0869 12.2119C9.73971 12.2338 9.39649 12.1282 9.12162 11.9149L8.98733 11.7964L0.415724 3.22476L0.297149 3.09047L0.220005 2.98047L0.142861 2.84332L0.118574 2.79189L0.080002 2.69617L0.0342867 2.54188L0.0200003 2.46617L0.00571467 2.38045L0 2.29902V2.13045L0.00714317 2.04759L0.0200003 1.96187L0.0342867 1.88758L0.080002 1.7333L0.118574 1.63758L0.218577 1.449L0.311435 1.32043L0.415724 1.20471L0.550012 1.08614L0.660014 1.00899L0.79716 0.931851L0.84859 0.907564L0.944306 0.868991L1.09859 0.823276L1.17431 0.80899L1.26003 0.794704L1.34146 0.78899L18.569 0.786133Z" fill="black"/>
</svg>
