<svg width="36" height="36" viewBox="0 0 36 36" fill="none" xmlns="http://www.w3.org/2000/svg">
<path d="M7.3335 34H18.0002" stroke="white" stroke-width="4" stroke-linecap="round" stroke-linejoin="round"/>
<path d="M12.6667 34V2L2 12.6667H34" stroke="white" stroke-width="4" stroke-linecap="round" stroke-linejoin="round"/>
<path d="M12.6665 2L30.4443 12.6667" stroke="white" stroke-width="4" stroke-linecap="round" stroke-linejoin="round"/>
<path d="M26.8891 12.667V19.7781C27.5923 19.7781 28.2797 19.9866 28.8644 20.3773C29.4491 20.768 29.9048 21.3233 30.174 21.973C30.4431 22.6227 30.5135 23.3376 30.3763 24.0273C30.2391 24.717 29.9005 25.3506 29.4032 25.8478C28.906 26.3451 28.2724 26.6837 27.5827 26.8209C26.893 26.9581 26.1781 26.8877 25.5284 26.6186C24.8787 26.3495 24.3234 25.8937 23.9327 25.309C23.542 24.7243 23.3335 24.0369 23.3335 23.3337" stroke="white" stroke-width="4" stroke-linecap="round" stroke-linejoin="round"/>
</svg>
