<svg width="36" height="36" viewBox="0 0 36 36" fill="none" xmlns="http://www.w3.org/2000/svg">
<path d="M26 6H32C32.5304 6 33.0391 6.21071 33.4142 6.58579C33.7893 6.96086 34 7.46957 34 8V30C34 31.0609 33.5786 32.0783 32.8284 32.8284C32.0783 33.5786 31.0609 34 30 34M30 34C28.9391 34 27.9217 33.5786 27.1716 32.8284C26.4214 32.0783 26 31.0609 26 30V4C26 3.46957 25.7893 2.96086 25.4142 2.58579C25.0391 2.21071 24.5304 2 24 2H4C3.46957 2 2.96086 2.21071 2.58579 2.58579C2.21071 2.96086 2 3.46957 2 4V28C2 29.5913 2.63214 31.1174 3.75736 32.2426C4.88258 33.3679 6.4087 34 8 34H30Z" stroke="white" stroke-width="4" stroke-linecap="round" stroke-linejoin="round"/>
<path d="M10 10H18" stroke="white" stroke-width="4" stroke-linecap="round" stroke-linejoin="round"/>
<path d="M10 18H18" stroke="white" stroke-width="4" stroke-linecap="round" stroke-linejoin="round"/>
<path d="M10 26H18" stroke="white" stroke-width="4" stroke-linecap="round" stroke-linejoin="round"/>
</svg>
