<svg width="217" height="218" viewBox="0 0 217 218" fill="none" xmlns="http://www.w3.org/2000/svg">
<g clip-path="url(#clip0_620_607)">
<path d="M90.0608 38.4411L90.3908 38.4432L90.704 38.3392L107.556 32.7431L121.852 43.2751L122.118 43.4709L122.432 43.5709L139.351 48.9487L144.728 65.8705L144.828 66.1851L145.024 66.4509L155.553 80.7473L149.959 97.5958L149.855 97.9091L149.857 98.2393L149.975 115.995L135.542 126.34L135.274 126.532L135.082 126.8L124.737 141.234L106.979 141.12L106.649 141.117L106.335 141.221L89.4831 146.818L75.1876 136.286L74.9218 136.09L74.6071 135.99L57.6884 130.612L52.3114 113.69L52.2115 113.376L52.0157 113.11L41.4862 98.8133L47.0801 81.9648L47.1841 81.6515L47.1819 81.3213L47.064 63.5654L61.497 53.2209L61.7652 53.0287L61.9574 52.7604L72.3027 38.3265L90.0608 38.4411Z" fill="#E73D3D" stroke="#B42318" stroke-width="4"/>
<path d="M139.866 169.857L139.378 169.969L139.001 170.297L109.833 195.685L92.9572 162.565L109.806 156.967L131.794 157.108L132.829 157.115L133.432 156.274L146.242 138.402L160.674 128.061L177.55 161.182L139.866 169.857Z" fill="#E73D3D" stroke="#B42318" stroke-width="4"/>
<path d="M68.1044 93.4193L64.1423 85.6432L70.4857 82.4111L74.4478 90.1872L72.9645 90.943L69.6679 84.4731L66.281 86.1987L69.5776 92.6687L68.1044 93.4193ZM79.827 87.644C79.098 88.0155 78.3766 88.1726 77.663 88.1153C76.9494 88.0581 76.2893 87.8056 75.6829 87.3579C75.0764 86.9102 74.5685 86.2847 74.1592 85.4814C73.7482 84.6748 73.539 83.8929 73.5316 83.1357C73.5241 82.3785 73.707 81.6944 74.0801 81.0835C74.4532 80.4725 75.0043 79.9812 75.7333 79.6098C76.4623 79.2384 77.1836 79.0813 77.8973 79.1385C78.6109 79.1958 79.2718 79.45 79.88 79.901C80.4882 80.3521 80.9978 80.981 81.4088 81.7876C81.8181 82.5909 82.0256 83.3694 82.0313 84.1232C82.037 84.877 81.8533 85.5594 81.4802 86.1704C81.107 86.7814 80.556 87.2726 79.827 87.644ZM79.1846 86.3708C79.6571 86.13 79.985 85.8057 80.1682 85.3977C80.3514 84.9897 80.4116 84.5404 80.3485 84.0496C80.2889 83.5571 80.1318 83.061 79.8773 82.5615C79.6245 82.0654 79.3164 81.6485 78.953 81.3107C78.5913 80.9679 78.1907 80.749 77.7512 80.6541C77.3117 80.5592 76.8558 80.6321 76.3832 80.8729C75.9074 81.1153 75.577 81.4431 75.3921 81.8561C75.2105 82.2675 75.1505 82.7211 75.2118 83.217C75.2748 83.7078 75.4327 84.2012 75.6855 84.6974C75.94 85.1969 76.2473 85.6163 76.6073 85.9558C76.9707 86.2936 77.3713 86.5082 77.8091 86.5997C78.2502 86.6896 78.7087 86.6132 79.1846 86.3708ZM88.8343 82.8569L84.8722 75.0809L88.097 73.4377C88.9745 72.9906 89.7652 72.8237 90.4691 72.9369C91.1712 73.0468 91.6848 73.4207 92.0099 74.0585C92.242 74.5142 92.2809 74.9492 92.1265 75.3638C91.9721 75.7783 91.6785 76.1532 91.2457 76.4885C91.6139 76.3519 91.9862 76.294 92.3624 76.3149C92.7369 76.3323 93.0833 76.4364 93.4015 76.6271C93.7231 76.8161 93.9828 77.1047 94.1806 77.4928C94.3904 77.9046 94.4698 78.3232 94.4188 78.7488C94.3661 79.171 94.1828 79.5748 93.869 79.96C93.5568 80.3401 93.1172 80.6747 92.5502 80.9636L88.8343 82.8569ZM89.612 80.8664L91.9053 79.6979C92.2799 79.5071 92.528 79.268 92.6495 78.9808C92.7709 78.6936 92.7534 78.3964 92.5969 78.0893C92.4129 77.7282 92.1622 77.4988 91.8447 77.4013C91.5254 77.3004 91.1785 77.3454 90.8038 77.5362L88.5105 78.7047L89.612 80.8664ZM87.9456 77.596L89.7631 76.67C90.0466 76.5256 90.2689 76.3612 90.4302 76.1771C90.5948 75.9912 90.6932 75.7964 90.7256 75.5929C90.7596 75.3843 90.7241 75.177 90.6192 74.9712C90.4662 74.6708 90.2234 74.499 89.8911 74.4558C89.5587 74.4126 89.1782 74.5001 88.7496 74.7185L86.9473 75.6368L87.9456 77.596ZM100.264 77.2306C99.5118 77.6141 98.7769 77.7739 98.0599 77.7098C97.3445 77.6407 96.6877 77.3781 96.0897 76.9218C95.4916 76.4656 94.9939 75.8477 94.5967 75.068C94.1943 74.2783 93.9877 73.5057 93.9769 72.7502C93.9643 71.9914 94.1412 71.3039 94.5075 70.6879C94.8739 70.0719 95.4232 69.5773 96.1556 69.2041C96.7462 68.9032 97.3286 68.7446 97.9028 68.7284C98.4752 68.7088 99.0029 68.8225 99.4859 69.0696C99.9723 69.3149 100.376 69.6854 100.696 70.181L99.2231 70.9316C98.9563 70.6084 98.6108 70.3891 98.1864 70.2737C97.7654 70.1567 97.3136 70.2211 96.8309 70.467C96.4091 70.6819 96.0962 70.9816 95.8925 71.366C95.6904 71.7453 95.6056 72.1839 95.6382 72.6817C95.6691 73.1761 95.8255 73.7001 96.1075 74.2536C96.3964 74.8206 96.7318 75.2661 97.1138 75.5902C97.4957 75.9142 97.9012 76.1093 98.3303 76.1755C98.7628 76.24 99.1933 76.1631 99.6219 75.9447C99.9088 75.7985 100.142 75.6138 100.322 75.3905C100.503 75.1621 100.622 74.9079 100.679 74.628C100.74 74.3463 100.731 74.0491 100.652 73.7363L102.125 72.9856C102.328 73.516 102.393 74.0483 102.32 74.5825C102.248 75.1167 102.04 75.6137 101.696 76.0737C101.356 76.532 100.879 76.9177 100.264 77.2306ZM108.429 73.0706C107.663 73.4609 106.92 73.6334 106.199 73.5881C105.481 73.5376 104.819 73.2902 104.214 72.8459C103.611 72.3965 103.104 71.7685 102.693 70.9618C102.287 70.1653 102.078 69.3877 102.066 68.6288C102.056 67.8683 102.233 67.1808 102.596 66.5665C102.963 65.9505 103.507 65.4585 104.229 65.0905C104.668 64.8669 105.13 64.7228 105.616 64.6581C106.101 64.5935 106.587 64.633 107.073 64.7767C107.558 64.9204 108.022 65.1921 108.464 65.592C108.904 65.9884 109.304 66.5393 109.663 67.2447L109.936 67.7813L103.755 70.9309L103.177 69.7969L107.875 67.4031C107.672 67.0049 107.412 66.6934 107.093 66.4689C106.773 66.2409 106.42 66.1123 106.036 66.083C105.654 66.052 105.268 66.1363 104.876 66.3358C104.451 66.5524 104.133 66.8462 103.922 67.2171C103.714 67.5829 103.608 67.9768 103.606 68.3986C103.606 68.8153 103.705 69.2178 103.903 69.6059L104.354 70.4918C104.619 71.0116 104.935 71.4073 105.303 71.6789C105.674 71.9488 106.075 72.0957 106.503 72.1196C106.93 72.1401 107.365 72.0377 107.807 71.8124C108.094 71.6662 108.335 71.4924 108.53 71.2911C108.723 71.0863 108.864 70.8574 108.952 70.6043C109.039 70.3512 109.067 70.08 109.034 69.7905L110.599 69.3187C110.699 69.7991 110.681 70.2735 110.546 70.7421C110.412 71.2056 110.167 71.6386 109.811 72.0411C109.457 72.4385 108.996 72.7817 108.429 73.0706ZM113.767 67.481L114.313 60.0798L115.943 59.2492L119.906 67.0253L118.422 67.7811L115.538 62.1212L115.01 69.5197L113.365 70.358L109.403 62.5819L110.886 61.8261L113.767 67.481ZM112.324 57.7775L113.569 57.1429C113.86 57.7133 113.894 58.2806 113.671 58.8447C113.45 59.4037 112.997 59.8577 112.312 60.2068C111.63 60.5542 110.998 60.653 110.416 60.5033C109.832 60.3502 109.395 59.9884 109.104 59.418L110.345 58.7861C110.474 59.0392 110.662 59.2258 110.91 59.3459C111.157 59.4626 111.461 59.429 111.822 59.2449C112.176 59.0644 112.38 58.8392 112.434 58.5695C112.491 58.298 112.455 58.034 112.324 57.7775ZM68.7301 122.281L60.8059 106.729L66.6379 103.757C67.8327 103.149 68.9486 102.861 69.9856 102.893C71.0277 102.924 71.9549 103.223 72.7672 103.791C73.5821 104.351 74.241 105.125 74.744 106.112C75.2522 107.11 75.4935 108.103 75.468 109.091C75.4424 110.08 75.1331 111.006 74.54 111.869C73.9443 112.728 73.0465 113.462 71.8467 114.074L67.9814 116.043L66.8013 113.727L70.2869 111.951C70.9855 111.595 71.4956 111.182 71.8173 110.712C72.139 110.242 72.2978 109.74 72.2938 109.207C72.2948 108.671 72.1547 108.127 71.8736 107.575C71.5924 107.023 71.2359 106.593 70.8041 106.283C70.3774 105.971 69.8794 105.814 69.3102 105.811C68.7435 105.8 68.1083 105.973 67.4046 106.332L64.8227 107.647L71.5474 120.845L68.7301 122.281ZM87.4073 113.051C86.2683 113.632 85.1534 113.884 84.0627 113.809C82.972 113.733 81.9667 113.362 81.0469 112.696C80.1321 112.027 79.3678 111.09 78.7539 109.885C78.1399 108.68 77.8299 107.508 77.8238 106.37C77.8228 105.229 78.1123 104.195 78.6922 103.268C79.2721 102.342 80.1317 101.588 81.2707 101.008C82.4098 100.427 83.5247 100.175 84.6154 100.25C85.7061 100.326 86.7101 100.701 87.6274 101.375C88.5499 102.046 89.318 102.984 89.9319 104.189C90.5459 105.394 90.8521 106.565 90.8505 107.7C90.854 108.834 90.5658 109.864 89.9859 110.791C89.4059 111.717 88.5464 112.471 87.4073 113.051ZM86.3004 110.841C86.9181 110.527 87.348 110.094 87.5903 109.543C87.8301 108.988 87.9041 108.37 87.8126 107.689C87.7261 107.006 87.5023 106.311 87.1411 105.602C86.7774 104.888 86.3448 104.295 85.8431 103.824C85.344 103.345 84.7992 103.039 84.2086 102.906C83.6181 102.774 83.014 102.865 82.3964 103.179C81.7636 103.502 81.3248 103.942 81.08 104.5C80.8403 105.056 80.7649 105.678 80.854 106.366C80.9456 107.046 81.1732 107.743 81.5369 108.457C81.898 109.166 82.3269 109.757 82.8235 110.231C83.3251 110.703 83.8712 111.005 84.4617 111.137C85.0547 111.263 85.6676 111.164 86.3004 110.841ZM100.417 106.422C99.253 107.016 98.1229 107.27 97.0271 107.184C95.9363 107.096 94.936 106.716 94.0263 106.044C93.1191 105.365 92.365 104.435 91.7639 103.256C91.1603 102.071 90.8555 100.91 90.8494 99.7714C90.8407 98.628 91.1225 97.5917 91.6948 96.6624C92.2696 95.7254 93.1266 94.9668 94.2656 94.3864C95.2123 93.904 96.1392 93.6518 97.0462 93.6297C97.9556 93.5999 98.7893 93.7905 99.5471 94.2015C100.302 94.6074 100.924 95.2151 101.413 96.0245L98.7859 97.3632C98.3933 96.8555 97.9015 96.5162 97.3107 96.3453C96.7224 96.1668 96.0966 96.2465 95.4334 96.5844C94.8715 96.8708 94.4553 97.2741 94.1848 97.7946C93.9117 98.3099 93.7994 98.9092 93.8478 99.5924C93.9012 100.273 94.1278 101.006 94.5277 101.79C94.9326 102.585 95.3973 103.209 95.9217 103.663C96.4434 104.111 96.9931 104.383 97.5706 104.477C98.1507 104.564 98.7267 104.462 99.2988 104.171C99.7038 103.964 100.027 103.704 100.269 103.39C100.513 103.068 100.669 102.704 100.737 102.3C100.805 101.895 100.772 101.462 100.639 101.001L103.267 99.6619C103.621 100.521 103.751 101.376 103.656 102.228C103.558 103.075 103.239 103.863 102.698 104.591C102.155 105.314 101.394 105.925 100.417 106.422ZM112.759 100.134C111.595 100.727 110.465 100.981 109.369 100.895C108.278 100.807 107.278 100.427 106.368 99.7556C105.461 99.0764 104.707 98.147 104.106 96.9674C103.502 95.7828 103.197 94.6213 103.191 93.483C103.183 92.3395 103.464 91.3032 104.037 90.3739C104.611 89.437 105.468 88.6783 106.607 88.0979C107.554 87.6156 108.481 87.3633 109.388 87.3412C110.297 87.3114 111.131 87.502 111.889 87.913C112.644 88.3189 113.266 88.9266 113.755 89.736L111.128 91.0748C110.735 90.567 110.243 90.2277 109.653 90.0568C109.064 89.8783 108.438 89.9581 107.775 90.296C107.213 90.5823 106.797 90.9857 106.527 91.5061C106.254 92.0215 106.141 92.6207 106.19 93.3039C106.243 93.9845 106.47 94.7172 106.869 95.5019C107.274 96.2967 107.739 96.9208 108.264 97.3742C108.785 97.8225 109.335 98.0941 109.912 98.1888C110.493 98.2759 111.069 98.1737 111.641 97.8822C112.046 97.6758 112.369 97.4154 112.61 97.1011C112.854 96.779 113.011 96.4158 113.079 96.0112C113.147 95.6067 113.114 95.1737 112.981 94.7122L115.609 93.3734C115.963 94.2322 116.093 95.0875 115.998 95.9395C115.9 96.7864 115.581 97.574 115.04 98.3023C114.497 99.0256 113.736 99.6361 112.759 100.134ZM120.651 91.1387L121.274 80.816L124.099 79.3767L130.042 91.0408L127.385 92.395L123.334 84.4443L122.73 94.7668L119.897 96.2101L113.954 84.546L116.604 83.1956L120.651 91.1387ZM133.62 84.531L134.243 74.2083L137.068 72.769L143.011 84.4331L140.353 85.7873L136.302 77.8366L135.698 88.1591L132.865 89.6024L126.922 77.9383L129.573 76.5879L133.62 84.531Z" fill="white"/>
</g>
<defs>
<clipPath id="clip0_620_607">
<rect width="160" height="162.06" fill="white" transform="translate(0 72.6387) rotate(-27)"/>
</clipPath>
</defs>
</svg>
