<svg width="31" height="30" viewBox="0 0 31 30" fill="none" xmlns="http://www.w3.org/2000/svg">
<circle cx="15.9497" cy="15" r="15" fill="#FF0000"/>
<path d="M7.94971 16V13C7.94971 10.8783 8.79256 8.84344 10.2929 7.34315C11.7931 5.84285 13.828 5 15.9497 5C18.0714 5 20.1063 5.84285 21.6066 7.34315C23.1069 8.84344 23.9497 10.8783 23.9497 13V16" stroke="white" stroke-width="2" stroke-linecap="round" stroke-linejoin="round"/>
<path d="M21.9497 21C21.9497 22.657 19.2637 24 15.9497 24" stroke="white" stroke-width="2" stroke-linecap="round" stroke-linejoin="round"/>
<path d="M7.94971 16C7.94971 15.4696 8.16042 14.9609 8.53549 14.5858C8.91057 14.2107 9.41927 14 9.94971 14H10.9497C11.4801 14 11.9888 14.2107 12.3639 14.5858C12.739 14.9609 12.9497 15.4696 12.9497 16V19C12.9497 19.5304 12.739 20.0391 12.3639 20.4142C11.9888 20.7893 11.4801 21 10.9497 21H9.94971C9.41927 21 8.91057 20.7893 8.53549 20.4142C8.16042 20.0391 7.94971 19.5304 7.94971 19V16Z" stroke="white" stroke-width="2" stroke-linecap="round" stroke-linejoin="round"/>
<path d="M18.9497 16C18.9497 15.4696 19.1604 14.9609 19.5355 14.5858C19.9106 14.2107 20.4193 14 20.9497 14H21.9497C22.4801 14 22.9888 14.2107 23.3639 14.5858C23.739 14.9609 23.9497 15.4696 23.9497 16V19C23.9497 19.5304 23.739 20.0391 23.3639 20.4142C22.9888 20.7893 22.4801 21 21.9497 21H20.9497C20.4193 21 19.9106 20.7893 19.5355 20.4142C19.1604 20.0391 18.9497 19.5304 18.9497 19V16Z" stroke="white" stroke-width="2" stroke-linecap="round" stroke-linejoin="round"/>
</svg>
