<svg width="369" height="338" viewBox="0 0 369 338" fill="none" xmlns="http://www.w3.org/2000/svg">
<path d="M10.8196 322.5L18.3193 244C36.0903 246.696 45.555 246.57 63.3196 244V324L62.8196 325.5C62.8196 325.5 68.736 329.591 72.8196 331C76.9033 332.409 77.662 335.989 72.8196 337H48.3196C46.5648 336.868 46.0539 336.273 45.8196 334.5L45.3196 326C44.1173 324.759 43.9565 323.958 43.8196 322.5L41.8196 256.5L28.3196 326C28.3196 326 30.3196 328.5 33.8196 331C37.3196 333.5 37.2854 336.423 33.8196 337H12.8196C11.1918 336.751 10.6806 336.252 10.8196 334.5L11.8196 325C10.9453 324.339 10.7745 323.761 10.8196 322.5Z" fill="#1B1B1B" stroke="black"/>
<path d="M3.31929 248.5L16.3193 246.5C16.8662 228.52 17.8308 218.617 21.3193 201.5C19.5364 219.168 19.2332 228.413 17.8193 244C35.2076 245.806 44.9377 245.813 62.3193 244C63.8458 243.741 64.1906 243.332 64.3193 242C63.8709 228.512 63.9159 220.832 64.3193 207C64.5521 219.438 66.9471 223.58 76.3193 225.5C86.0657 226.279 92.3993 214.811 103.319 199.5L92.3193 190.5C87.1703 196.751 84.0251 200.11 77.8193 206C71.1132 185.233 65.0922 176.746 48.8195 171.5C47.4963 184.126 41.7182 182.191 32.3193 171.5C3.09396 177.668 -3.14441 201.476 3.31929 248.5Z" fill="#FF3535" stroke="#FF0000" stroke-width="0.5"/>
<path d="M32.8193 170.5C42.6639 181.534 46.7186 183.34 48.3193 169.5C54.8488 170.683 61.5382 163.397 60.8193 155.5C64.4583 154.286 65.1753 153.625 64.8193 152.5C63.5946 149.75 62.5442 148.355 60.3193 146L57.3193 135.5C54.7129 136.937 53.107 137.453 49.8193 137.5C49.093 143.816 48.2004 146.501 45.3193 149C41.0212 145.799 38.8581 144.821 35.8193 146C33.9831 149.21 34.7434 151.553 38.3193 156.5C36.6307 161.92 35.7071 164.956 32.8193 170.5Z" fill="#FCE3C3" stroke="#FCE3C3"/>
<path d="M103.319 198.451L92.8193 189.951C93.8616 183.187 94.5028 179.843 96.3193 179.451C98.4908 179.146 99.5456 180.361 101.319 183.451C106.083 176.968 109.819 174.451 112.819 176.951C115.819 179.451 112.527 188.847 103.319 198.451Z" fill="#FCE3C3" stroke="#FCE3C3"/>
<path d="M10.3193 269.5C6.81934 269.5 4.46611 262.117 3.81934 249L16.3193 247C23.1761 255.538 21.1883 261.86 19.8193 262C18.4504 262.14 17.2676 261.143 15.8193 257C15.6953 265.169 13.8193 269.5 10.3193 269.5Z" fill="#FCE3C3" stroke="#FCE3C3"/>
<path d="M24.819 137C23.9031 140.064 25.9874 157.796 34.8191 164L38.3191 156.5C33.9701 150.816 33.7381 148.851 35.3191 146.5C39.401 142.066 44.8191 149 45.3191 149C45.8191 148.999 48.272 146.671 49.3191 138C49.7375 136.947 48.2956 138.651 57.319 135.5C66.3425 132.348 61.4362 121.216 53.3191 125.5C44.5079 119.782 39.5729 121.171 30.819 129C27.1045 131.346 25.735 133.935 24.819 137Z" fill="#1B1B1B" stroke="black"/>
<path d="M169.819 170.5C169.319 161 152.664 160.708 151.819 170.501C150.974 180.293 153.504 204.517 154.319 214.001C155.134 223.484 165.819 223.5 166.82 214C167.82 204.5 170.32 180 169.819 170.5Z" fill="#FF3535" stroke="#FF0000"/>
<circle cx="160.819" cy="237" r="8.5" fill="#FF3535" stroke="#FF0000"/>
<path d="M203.319 134C211.647 138.342 223.406 144.987 227.319 152L217.819 164C211.661 162.13 208.216 161.075 204.319 157C201.819 154 202.78 151.678 205.819 151C202.892 148.294 202.488 143.884 207.819 144L199.819 139C194.819 136 194.992 129.657 203.319 134Z" fill="#FCE3C3" stroke="#FCE3C3" stroke-width="0.5"/>
<path d="M267.319 322.5L273.819 219L321.819 219.5L331.819 321.5C332.154 323.808 331.964 324.741 330.319 325L331.319 334C331.702 336.421 331.198 337.012 328.819 337H305.319C302.819 337 302.319 333 305.319 331C308.318 329 312.819 325 312.819 325C311.644 324.551 311.207 323.987 310.819 322.5L295.319 242.5L288.819 323.241C288.706 324.385 288.509 324.874 287.819 325.5L288.819 333.5C289.23 336.101 288.667 336.987 285.819 337H257.319C253.819 337 251.819 332.5 257.319 330C262.819 327.5 268.319 324 268.319 324C267.501 323.721 267.268 323.402 267.319 322.5Z" fill="#1B1B1B" stroke="black" stroke-width="0.5"/>
<path d="M353.819 257.999C353.602 220.917 315.162 235.288 320.819 259L327.319 259C323.819 233.5 349.319 235.999 346.819 257.999L353.819 257.999Z" fill="#1B1B1B" stroke="black" stroke-width="0.5"/>
<rect x="309.079" y="259.572" width="57.5" height="34.597" rx="3.75" transform="rotate(-2.30452 309.079 259.572)" fill="#D0D0D0" stroke="#D0D0D0" stroke-width="0.5"/>
<path d="M324.82 241.5C323.124 243.962 325.543 234.517 328.32 230.5H343.319C343.292 235.734 343.167 238.693 342.819 244C342.656 248.267 341.128 249.807 335.319 250C329.511 250.193 328.477 248.55 329.32 243.5C329.981 240.121 326.516 239.038 324.82 241.5Z" fill="#FCE3C3" stroke="#FCE3C3" stroke-width="0.5"/>
<path d="M287.319 147C271.621 152.152 263.933 157.85 250.819 169.5L227.319 152L217.819 164.5L237.319 182.5C249.165 193.719 256.814 192.286 271.319 183L272.819 215C272.921 218.025 273.52 218.988 275.819 219L321.819 219.5C322.391 203.183 322.065 194.306 317.819 180C324.835 198.398 326.55 209.518 327.819 230C327.941 230.825 331.377 230.801 335.819 231C340.993 231.147 343.38 231.063 343.319 229.5C344.603 181.091 342.729 156.366 305.319 144C298.986 148.083 290.044 161.648 287.319 147Z" fill="#FF3535" stroke="#FF0000" stroke-width="0.5"/>
<path d="M271.319 183L270.819 171" stroke="black" stroke-width="0.6"/>
<path d="M276.819 118C277.05 114.816 277.34 113.033 277.819 110L314.819 114.5L303.819 128.5L304.819 144C293.462 152.497 289.625 160.611 286.819 142C278.829 141.92 275.913 139.55 275.319 128.5C270.557 127.571 270.126 126.614 269.819 125C269.512 123.386 272.725 120.356 276.819 118Z" fill="#FCE3C3" stroke="#FCE3C3" stroke-width="0.5"/>
<path d="M301.877 87.4954C288.59 84.7373 280.433 91.6845 276.743 103.372L270.345 102.287C269.175 102.357 268.83 102.841 268.551 104.317C268.081 106.816 269.004 107.632 271.99 108.425C289.778 111.959 315.508 119.409 317.036 119.316C318.564 119.224 319.215 117.84 318.967 115.662C318.648 115.015 318.473 114.696 318.568 113.991C321.202 99.2355 315.163 90.2534 301.877 87.4954Z" fill="#FF3535" stroke="#FF0000" stroke-width="0.5"/>
<path d="M300.819 120C299.871 120.755 298.495 123.299 296.242 122.421C294.702 121.557 294.21 117.997 294.055 114L315.682 119.602C314.988 126.002 310.388 135.558 305.018 138.593C303.465 139.057 302.326 133.694 302.326 133.694C302.326 133.694 301.604 129.223 302.882 127.873C304.076 127.352 304.768 126.621 305.924 124.268C307.821 120.671 303.676 117.385 300.819 120Z" fill="#1B1B1B" stroke="black" stroke-width="0.5"/>
<rect x="63.8193" y="2" width="192" height="112" rx="10" stroke="black" stroke-width="4"/>
<path d="M109.886 36.5455C109.886 39.4799 109.33 41.9763 108.217 44.0348C107.114 46.0933 105.607 47.6656 103.698 48.7518C101.797 49.8292 99.6594 50.3679 97.2856 50.3679C94.8943 50.3679 92.7482 49.8248 90.8474 48.7386C88.9466 47.6525 87.4443 46.0801 86.3406 44.0217C85.2369 41.9632 84.6851 39.4711 84.6851 36.5455C84.6851 33.611 85.2369 31.1146 86.3406 29.0561C87.4443 26.9976 88.9466 25.4297 90.8474 24.3523C92.7482 23.2661 94.8943 22.723 97.2856 22.723C99.6594 22.723 101.797 23.2661 103.698 24.3523C105.607 25.4297 107.114 26.9976 108.217 29.0561C109.33 31.1146 109.886 33.611 109.886 36.5455ZM104.118 36.5455C104.118 34.6446 103.833 33.0417 103.264 31.7365C102.703 30.4313 101.911 29.4415 100.886 28.767C99.8609 28.0926 98.6608 27.7553 97.2856 27.7553C95.9104 27.7553 94.7103 28.0926 93.6855 28.767C92.6606 29.4415 91.8635 30.4313 91.2941 31.7365C90.7335 33.0417 90.4532 34.6446 90.4532 36.5455C90.4532 38.4463 90.7335 40.0492 91.2941 41.3544C91.8635 42.6596 92.6606 43.6494 93.6855 44.3239C94.7103 44.9983 95.9104 45.3356 97.2856 45.3356C98.6608 45.3356 99.8609 44.9983 100.886 44.3239C101.911 43.6494 102.703 42.6596 103.264 41.3544C103.833 40.0492 104.118 38.4463 104.118 36.5455ZM113.995 29.8182H119.343V45.5589H125.032V29.8182H130.38V45.5589H136.069V29.8182H141.417V50H113.995V29.8182ZM151.104 42.6158L158.37 29.8182H163.888V50H158.554V37.163L151.314 50H145.756V29.8182H151.104V42.6158ZM185.154 22.4077L186.862 26.0604C186.293 26.5334 185.662 26.8838 184.97 27.1115C184.278 27.3305 183.45 27.475 182.487 27.5451C181.532 27.6152 180.367 27.6634 178.992 27.6896C177.433 27.7071 176.162 27.9568 175.181 28.4386C174.2 28.9203 173.456 29.678 172.948 30.7116C172.44 31.7365 172.107 33.0767 171.949 34.7322H172.146C172.751 33.4972 173.6 32.5424 174.695 31.8679C175.799 31.1934 177.161 30.8562 178.782 30.8562C180.498 30.8562 182.001 31.2328 183.288 31.9861C184.585 32.7395 185.592 33.8213 186.31 35.2315C187.029 36.6418 187.388 38.3324 187.388 40.3033C187.388 42.353 186.985 44.1355 186.179 45.6509C185.382 47.1576 184.247 48.3269 182.776 49.1591C181.304 49.9825 179.552 50.3942 177.52 50.3942C175.479 50.3942 173.719 49.965 172.238 49.1065C170.767 48.2481 169.628 46.9824 168.822 45.3093C168.025 43.6362 167.626 41.5778 167.626 39.1339V37.4783C167.626 32.6168 168.572 29.0123 170.464 26.6648C172.356 24.3172 175.138 23.1259 178.808 23.0909C179.806 23.0734 180.709 23.069 181.514 23.0778C182.32 23.0865 183.025 23.0471 183.63 22.9595C184.243 22.8719 184.751 22.688 185.154 22.4077ZM177.546 46.0582C178.405 46.0582 179.141 45.8349 179.754 45.3881C180.376 44.9414 180.853 44.302 181.186 43.4698C181.528 42.6377 181.698 41.6435 181.698 40.4872C181.698 39.3397 181.528 38.3674 181.186 37.5703C180.853 36.7644 180.376 36.1513 179.754 35.7308C179.132 35.3104 178.387 35.1001 177.52 35.1001C176.872 35.1001 176.289 35.2184 175.773 35.4549C175.256 35.6914 174.813 36.0418 174.446 36.506C174.086 36.9615 173.806 37.5265 173.605 38.201C173.412 38.8667 173.316 39.6288 173.316 40.4872C173.316 42.2128 173.688 43.5749 174.432 44.5735C175.186 45.5633 176.224 46.0582 177.546 46.0582ZM191.103 50V29.8182H196.7V37.6491H198.277L203.769 29.8182H210.339L203.204 39.8303L210.417 50H203.769L198.789 42.8391H196.7V50H191.103ZM218.537 50.381C217.25 50.381 216.102 50.1577 215.095 49.7109C214.088 49.2554 213.291 48.5853 212.704 47.7006C212.126 46.8072 211.836 45.6947 211.836 44.3633C211.836 43.2421 212.042 42.3004 212.454 41.5384C212.866 40.7763 213.426 40.1631 214.136 39.6989C214.845 39.2346 215.651 38.8842 216.553 38.6477C217.464 38.4112 218.419 38.2448 219.418 38.1484C220.592 38.0258 221.538 37.9119 222.256 37.8068C222.974 37.6929 223.495 37.5265 223.819 37.3075C224.144 37.0885 224.306 36.7644 224.306 36.3352V36.2564C224.306 35.4242 224.043 34.7804 223.517 34.3249C223 33.8694 222.265 33.6417 221.31 33.6417C220.302 33.6417 219.501 33.8651 218.905 34.3118C218.31 34.7498 217.916 35.3016 217.723 35.9673L212.546 35.5469C212.809 34.3205 213.326 33.2607 214.096 32.3672C214.867 31.465 215.861 30.773 217.079 30.2912C218.305 29.8007 219.724 29.5554 221.336 29.5554C222.457 29.5554 223.53 29.6868 224.555 29.9496C225.589 30.2124 226.504 30.6197 227.301 31.1715C228.107 31.7234 228.742 32.4329 229.206 33.3001C229.671 34.1585 229.903 35.1877 229.903 36.3878V50H224.595V47.2013H224.437C224.113 47.832 223.679 48.3883 223.136 48.87C222.593 49.343 221.941 49.7153 221.178 49.9869C220.416 50.2496 219.536 50.381 218.537 50.381ZM220.14 46.5181C220.964 46.5181 221.691 46.3561 222.322 46.032C222.952 45.6991 223.447 45.2524 223.806 44.6918C224.165 44.1312 224.345 43.4961 224.345 42.7866V40.6449C224.17 40.7588 223.929 40.8639 223.622 40.9602C223.325 41.0478 222.987 41.131 222.611 41.2099C222.234 41.2799 221.857 41.3456 221.481 41.407C221.104 41.4595 220.762 41.5077 220.456 41.5515C219.799 41.6478 219.225 41.8011 218.735 42.0114C218.244 42.2216 217.863 42.5063 217.591 42.8654C217.32 43.2158 217.184 43.6538 217.184 44.1793C217.184 44.9414 217.46 45.5239 218.012 45.9268C218.573 46.321 219.282 46.5181 220.14 46.5181Z" fill="black"/>
<path d="M99.0988 75.6754V80.0771H88.5612V75.6754H99.0988ZM90.4007 67.8182V88H85.053V67.8182H90.4007ZM102.607 67.8182V88H97.2987V67.8182H102.607ZM112.704 88.381C111.417 88.381 110.269 88.1577 109.262 87.7109C108.255 87.2554 107.458 86.5853 106.871 85.7006C106.293 84.8072 106.003 83.6947 106.003 82.3633C106.003 81.2421 106.209 80.3004 106.621 79.5384C107.033 78.7763 107.593 78.1631 108.303 77.6989C109.012 77.2346 109.818 76.8842 110.72 76.6477C111.631 76.4112 112.586 76.2448 113.585 76.1484C114.759 76.0258 115.705 75.9119 116.423 75.8068C117.141 75.6929 117.662 75.5265 117.986 75.3075C118.311 75.0885 118.473 74.7644 118.473 74.3352V74.2564C118.473 73.4242 118.21 72.7804 117.684 72.3249C117.167 71.8694 116.432 71.6417 115.477 71.6417C114.469 71.6417 113.668 71.8651 113.072 72.3118C112.477 72.7498 112.083 73.3016 111.89 73.9673L106.713 73.5469C106.976 72.3205 107.493 71.2607 108.263 70.3672C109.034 69.465 110.028 68.773 111.246 68.2912C112.472 67.8007 113.891 67.5554 115.503 67.5554C116.624 67.5554 117.697 67.6868 118.722 67.9496C119.756 68.2124 120.671 68.6197 121.468 69.1715C122.274 69.7234 122.909 70.4329 123.373 71.3001C123.838 72.1585 124.07 73.1877 124.07 74.3878V88H118.762V85.2013H118.604C118.28 85.832 117.846 86.3883 117.303 86.87C116.76 87.343 116.108 87.7153 115.345 87.9869C114.583 88.2496 113.703 88.381 112.704 88.381ZM114.307 84.5181C115.131 84.5181 115.858 84.3561 116.489 84.032C117.119 83.6991 117.614 83.2524 117.973 82.6918C118.332 82.1312 118.512 81.4961 118.512 80.7866V78.6449C118.337 78.7588 118.096 78.8639 117.789 78.9602C117.492 79.0478 117.154 79.131 116.778 79.2099C116.401 79.2799 116.024 79.3456 115.648 79.407C115.271 79.4595 114.929 79.5077 114.623 79.5515C113.966 79.6478 113.392 79.8011 112.902 80.0114C112.411 80.2216 112.03 80.5063 111.758 80.8654C111.487 81.2158 111.351 81.6538 111.351 82.1793C111.351 82.9414 111.627 83.5239 112.179 83.9268C112.739 84.321 113.449 84.5181 114.307 84.5181ZM145.174 88.3622C143.274 88.3622 141.64 87.9598 140.272 87.1548C138.912 86.3419 137.865 85.215 137.133 83.7741C136.408 82.3333 136.046 80.6752 136.046 78.7997C136.046 76.9001 136.412 75.2339 137.145 73.8011C137.885 72.3603 138.936 71.2375 140.296 70.4325C141.656 69.6196 143.274 69.2131 145.15 69.2131C146.768 69.2131 148.184 69.5069 149.4 70.0945C150.615 70.6821 151.577 71.5071 152.286 72.5696C152.994 73.6321 153.384 74.8797 153.457 76.3125H148.603C148.466 75.3868 148.104 74.6423 147.516 74.0788C146.937 73.5073 146.176 73.2216 145.234 73.2216C144.438 73.2216 143.741 73.4389 143.146 73.8736C142.558 74.3002 142.099 74.924 141.769 75.745C141.439 76.5661 141.274 77.5601 141.274 78.7273C141.274 79.9105 141.435 80.9167 141.757 81.7457C142.087 82.5748 142.55 83.2067 143.146 83.6413C143.741 84.076 144.438 84.2933 145.234 84.2933C145.822 84.2933 146.349 84.1726 146.816 83.9311C147.291 83.6896 147.681 83.3395 147.987 82.8807C148.301 82.4138 148.506 81.8544 148.603 81.2024H153.457C153.376 82.6191 152.99 83.8667 152.298 84.9453C151.613 86.0159 150.668 86.853 149.46 87.4567C148.253 88.0604 146.824 88.3622 145.174 88.3622ZM162.038 88.3501C160.855 88.3501 159.8 88.1449 158.875 87.7344C157.949 87.3158 157.217 86.7 156.677 85.8871C156.146 85.0661 155.881 84.0438 155.881 82.8203C155.881 81.79 156.07 80.9247 156.448 80.2244C156.826 79.5241 157.341 78.9607 157.993 78.5341C158.645 78.1075 159.386 77.7855 160.215 77.5682C161.052 77.3509 161.93 77.1979 162.847 77.1094C163.926 76.9967 164.795 76.892 165.455 76.7955C166.115 76.6908 166.594 76.5379 166.892 76.3366C167.19 76.1354 167.339 75.8376 167.339 75.4432V75.3707C167.339 74.6061 167.097 74.0144 166.614 73.5959C166.139 73.1773 165.463 72.968 164.586 72.968C163.66 72.968 162.924 73.1733 162.376 73.5838C161.829 73.9863 161.467 74.4934 161.29 75.1051L156.532 74.7188C156.774 73.5919 157.249 72.6179 157.957 71.7969C158.666 70.9678 159.579 70.3319 160.698 69.8892C161.825 69.4384 163.129 69.2131 164.61 69.2131C165.64 69.2131 166.626 69.3338 167.568 69.5753C168.518 69.8168 169.359 70.1911 170.091 70.6982C170.832 71.2053 171.416 71.8572 171.842 72.6541C172.269 73.4429 172.482 74.3887 172.482 75.4915V88H167.604V85.4283H167.459C167.162 86.0078 166.763 86.5189 166.264 86.9616C165.765 87.3963 165.165 87.7384 164.465 87.9879C163.765 88.2294 162.956 88.3501 162.038 88.3501ZM163.511 84.8004C164.268 84.8004 164.936 84.6515 165.515 84.3537C166.095 84.0478 166.55 83.6373 166.88 83.1222C167.21 82.607 167.375 82.0234 167.375 81.3714V79.4034C167.214 79.508 166.992 79.6046 166.711 79.6932C166.437 79.7737 166.127 79.8501 165.781 79.9226C165.435 79.987 165.089 80.0473 164.743 80.1037C164.397 80.152 164.083 80.1963 163.801 80.2365C163.197 80.325 162.67 80.4659 162.219 80.6591C161.769 80.8523 161.418 81.1139 161.169 81.4439C160.919 81.7659 160.795 82.1683 160.795 82.6513C160.795 83.3516 161.048 83.8868 161.555 84.2571C162.07 84.6193 162.722 84.8004 163.511 84.8004ZM181.387 81.2145L188.063 69.4545H193.134V88H188.232V76.2038L181.58 88H176.472V69.4545H181.387V81.2145ZM187.182 62.983H190.768C190.76 64.4479 190.217 65.6271 189.138 66.5206C188.067 67.4141 186.619 67.8608 184.791 67.8608C182.956 67.8608 181.503 67.4141 180.433 66.5206C179.362 65.6271 178.827 64.4479 178.827 62.983H182.389C182.381 63.5384 182.558 64.0374 182.92 64.4801C183.29 64.9228 183.914 65.1442 184.791 65.1442C185.645 65.1442 186.256 64.9268 186.627 64.4922C186.997 64.0575 187.182 63.5544 187.182 62.983ZM195.395 73.4993V69.4545H212.202V73.4993H206.225V88H201.324V73.4993H195.395ZM223.108 88.3622C221.2 88.3622 219.558 87.9759 218.182 87.2031C216.813 86.4223 215.759 85.3196 215.018 83.8949C214.278 82.4621 213.907 80.7678 213.907 78.8118C213.907 76.9041 214.278 75.2299 215.018 73.7891C215.759 72.3482 216.801 71.2254 218.145 70.4205C219.498 69.6155 221.083 69.2131 222.903 69.2131C224.126 69.2131 225.265 69.4103 226.319 69.8047C227.382 70.1911 228.308 70.7746 229.096 71.5554C229.893 72.3362 230.513 73.3182 230.956 74.5014C231.398 75.6766 231.62 77.053 231.62 78.6307V80.0433H215.96V76.8558H226.778C226.778 76.1153 226.617 75.4593 226.295 74.8878C225.973 74.3163 225.527 73.8696 224.955 73.5476C224.392 73.2176 223.736 73.0526 222.987 73.0526C222.206 73.0526 221.514 73.2337 220.91 73.5959C220.315 73.95 219.848 74.429 219.51 75.0327C219.172 75.6283 218.999 76.2924 218.991 77.0249V80.0554C218.991 80.973 219.16 81.7659 219.498 82.4339C219.844 83.102 220.331 83.6172 220.959 83.9794C221.586 84.3416 222.331 84.5227 223.192 84.5227C223.764 84.5227 224.287 84.4422 224.762 84.2812C225.237 84.1203 225.643 83.8788 225.981 83.5568C226.319 83.2348 226.577 82.8404 226.754 82.3736L231.511 82.6875C231.27 83.8305 230.775 84.8286 230.026 85.6818C229.286 86.527 228.328 87.187 227.153 87.6619C225.985 88.1288 224.637 88.3622 223.108 88.3622Z" fill="#FF0000"/>
</svg>
