<svg width="380" height="484" viewBox="0 0 380 484" fill="none" xmlns="http://www.w3.org/2000/svg">
<path d="M52.0946 240.705C80.111 128.347 120.163 75.3694 227.43 0.25C230.836 138.743 272.826 207.99 316.519 253.791C323.425 200.118 316.765 171.13 290.417 117.479C312.547 136.562 348.294 165.461 370.991 226.529C388.015 291.413 381.772 345.394 344.888 410.277C327.18 434.12 309.14 465.892 268.854 483.886C294.369 452.118 300.359 432.341 300.062 394.465C300.062 394.465 273.959 477.343 171.822 477.343C101.46 477.343 60.0401 452.806 27.6952 401.008C-6.34934 346.482 -19.9707 211.262 52.0946 133.291C42.0833 182.445 40.1177 205.568 52.0946 240.705Z" fill="#FF9E9E"/>
<path d="M99.7979 317.224C100.102 299.877 105.007 285.485 116.528 267.279C127.818 249.438 145.381 228.06 171.086 196.769C172.198 195.415 173.324 194.042 174.468 192.65C200.529 221.761 220.444 244.194 234.003 263.89C247.328 283.242 254.396 299.784 255.156 317.224H99.7979Z" fill="#FF6F6F" stroke="#FF6F6F"/>
<path d="M255.212 320.343C255.212 359.409 220.566 391.336 177.498 391.336C134.43 391.336 99.7847 359.409 99.7847 320.343C99.7847 281.276 134.43 249.352 177.498 249.352C220.566 249.352 255.212 281.276 255.212 320.343Z" fill="#FF6F6F" stroke="#FF6F6F"/>
<path d="M199.742 349.152C221.022 341.148 226.808 316.041 228.338 299.933C229.865 283.824 241.987 332.422 214.04 353.398C186.089 374.37 178.458 357.16 199.742 349.152Z" fill="#FF9E9E"/>
</svg>
