<svg width="296" height="20" viewBox="0 0 296 20" fill="none" xmlns="http://www.w3.org/2000/svg">
<g clip-path="url(#clip0_1235_620)">
<path d="M125 9.99967C126.667 7.53301 125 4.16634 124.167 3.33301C124.167 5.86467 122.689 7.28384 121.667 8.33301C120.645 9.38301 120 11.033 120 12.4997C120 13.8258 120.527 15.0975 121.464 16.0352C122.402 16.9729 123.674 17.4997 125 17.4997C126.326 17.4997 127.598 16.9729 128.536 16.0352C129.473 15.0975 130 13.8258 130 12.4997C130 11.223 129.12 9.21634 128.333 8.33301C126.845 10.833 126.007 10.833 125 9.99967Z" stroke="#FF0000" stroke-width="2" stroke-linecap="round" stroke-linejoin="round"/>
</g>
<g clip-path="url(#clip1_1235_620)">
<path d="M141.252 16.186C143.42 17.9401 146.581 17.9401 148.748 16.186C150.917 14.4318 151.467 11.4293 150.053 9.06431L145.978 3.01431C145.628 2.49348 144.906 2.34514 144.365 2.68348C144.229 2.76866 144.113 2.88137 144.023 3.01431L139.946 9.06431C138.533 11.4293 139.083 14.4318 141.252 16.186Z" stroke="#FF0000" stroke-width="2" stroke-linecap="round" stroke-linejoin="round"/>
</g>
<g clip-path="url(#clip2_1235_620)">
<path d="M160 15.833C160.328 15.833 160.653 15.6821 160.957 15.389C161.26 15.0958 161.536 14.6661 161.768 14.1245C162 13.5828 162.184 12.9397 162.31 12.232C162.435 11.5243 162.5 10.7657 162.5 9.99967C162.5 9.23363 162.435 8.47509 162.31 7.76735C162.184 7.05962 162 6.41656 161.768 5.87489C161.536 5.33321 161.26 4.90353 160.957 4.61038C160.653 4.31722 160.328 4.16634 160 4.16634C159.672 4.16634 159.347 4.31722 159.043 4.61038C158.74 4.90353 158.464 5.33321 158.232 5.87489C158 6.41656 157.816 7.05962 157.69 7.76735C157.565 8.47509 157.5 9.23363 157.5 9.99967C157.5 10.7657 157.565 11.5243 157.69 12.232C157.816 12.9397 158 13.5828 158.232 14.1245C158.464 14.6661 158.74 15.0958 159.043 15.389C159.347 15.6821 159.672 15.833 160 15.833Z" stroke="#FF0000" stroke-width="2" stroke-linecap="round" stroke-linejoin="round"/>
<path d="M160 15.833H170C171.381 15.833 172.5 13.2213 172.5 9.99967C172.5 6.77801 171.381 4.16634 170 4.16634H160" stroke="#FF0000" stroke-width="2" stroke-linecap="round" stroke-linejoin="round"/>
</g>
<path d="M98.5 10H0M295.5 10H194" stroke="#FF0000" stroke-width="2"/>
<defs>
<clipPath id="clip0_1235_620">
<rect width="20" height="20" fill="white" transform="translate(115)"/>
</clipPath>
<clipPath id="clip1_1235_620">
<rect width="20" height="20" fill="white" transform="translate(135)"/>
</clipPath>
<clipPath id="clip2_1235_620">
<rect width="20" height="20" fill="white" transform="matrix(0 -1 1 0 155 20)"/>
</clipPath>
</defs>
</svg>
