<svg width="60" height="73" viewBox="0 0 60 73" fill="none" xmlns="http://www.w3.org/2000/svg">
<path d="M51.21 51.1965C55.4065 47.0029 58.2646 41.6595 59.4229 35.8421C60.5812 30.0247 59.9876 23.9946 57.7172 18.5144C55.4469 13.0342 51.6017 8.35014 46.668 5.05458C41.7344 1.75902 35.9338 0 30 0C24.0662 0 18.2656 1.75902 13.332 5.05458C8.39829 8.35014 4.55312 13.0342 2.28276 18.5144C0.0123974 23.9946 -0.581172 30.0247 0.577118 35.8421C1.73541 41.6595 4.59353 47.0029 8.79001 51.1965L30 72.4057L51.21 51.1965Z" fill="#FF0000"/>
<ellipse cx="30" cy="29.8004" rx="13.5" ry="13.4948" fill="white"/>
</svg>
