<svg width="60" height="20" viewBox="0 0 60 20" fill="none" xmlns="http://www.w3.org/2000/svg">
<g clip-path="url(#clip0_1235_609)">
<path d="M10 9.99967C11.6667 7.53301 10 4.16634 9.16667 3.33301C9.16667 5.86467 7.68917 7.28384 6.66667 8.33301C5.645 9.38301 5 11.033 5 12.4997C5 13.8258 5.52678 15.0975 6.46447 16.0352C7.40215 16.9729 8.67392 17.4997 10 17.4997C11.3261 17.4997 12.5979 16.9729 13.5355 16.0352C14.4732 15.0975 15 13.8258 15 12.4997C15 11.223 14.12 9.21634 13.3333 8.33301C11.845 10.833 11.0075 10.833 10 9.99967Z" stroke="#FF0000" stroke-width="2" stroke-linecap="round" stroke-linejoin="round"/>
</g>
<g clip-path="url(#clip1_1235_609)">
<path d="M26.2517 16.186C28.42 17.9401 31.5808 17.9401 33.7483 16.186C35.9167 14.4318 36.4667 11.4293 35.0533 9.06431L30.9783 3.01431C30.6283 2.49348 29.9058 2.34514 29.365 2.68348C29.2292 2.76866 29.1129 2.88137 29.0233 3.01431L24.9458 9.06431C23.5333 11.4293 24.0833 14.4318 26.2517 16.186Z" stroke="#FF0000" stroke-width="2" stroke-linecap="round" stroke-linejoin="round"/>
</g>
<g clip-path="url(#clip2_1235_609)">
<path d="M45 15.833C45.3283 15.833 45.6534 15.6821 45.9567 15.389C46.26 15.0958 46.5356 14.6661 46.7678 14.1245C46.9999 13.5828 47.1841 12.9397 47.3097 12.232C47.4353 11.5243 47.5 10.7657 47.5 9.99967C47.5 9.23363 47.4353 8.47509 47.3097 7.76735C47.1841 7.05962 46.9999 6.41656 46.7678 5.87489C46.5356 5.33321 46.26 4.90353 45.9567 4.61038C45.6534 4.31722 45.3283 4.16634 45 4.16634C44.6717 4.16634 44.3466 4.31722 44.0433 4.61038C43.74 4.90353 43.4644 5.33321 43.2322 5.87489C43.0001 6.41656 42.8159 7.05962 42.6903 7.76735C42.5647 8.47509 42.5 9.23363 42.5 9.99967C42.5 10.7657 42.5647 11.5243 42.6903 12.232C42.8159 12.9397 43.0001 13.5828 43.2322 14.1245C43.4644 14.6661 43.74 15.0958 44.0433 15.389C44.3466 15.6821 44.6717 15.833 45 15.833Z" stroke="#FF0000" stroke-width="2" stroke-linecap="round" stroke-linejoin="round"/>
<path d="M45 15.833H55C56.3808 15.833 57.5 13.2213 57.5 9.99967C57.5 6.77801 56.3808 4.16634 55 4.16634H45" stroke="#FF0000" stroke-width="2" stroke-linecap="round" stroke-linejoin="round"/>
</g>
<defs>
<clipPath id="clip0_1235_609">
<rect width="20" height="20" fill="white"/>
</clipPath>
<clipPath id="clip1_1235_609">
<rect width="20" height="20" fill="white" transform="translate(20)"/>
</clipPath>
<clipPath id="clip2_1235_609">
<rect width="20" height="20" fill="white" transform="matrix(0 -1 1 0 40 20)"/>
</clipPath>
</defs>
</svg>
