<svg width="36" height="29" viewBox="0 0 36 29" fill="none" xmlns="http://www.w3.org/2000/svg">
<path d="M5.55566 23.3329C5.55566 24.2759 5.93027 25.1803 6.59706 25.8471C7.26386 26.5139 8.16823 26.8885 9.11122 26.8885C10.0542 26.8885 10.9586 26.5139 11.6254 25.8471C12.2922 25.1803 12.6668 24.2759 12.6668 23.3329C12.6668 22.3899 12.2922 21.4855 11.6254 20.8187C10.9586 20.1519 10.0542 19.7773 9.11122 19.7773C8.16823 19.7773 7.26386 20.1519 6.59706 20.8187C5.93027 21.4855 5.55566 22.3899 5.55566 23.3329Z" stroke="white" stroke-width="4" stroke-linecap="round" stroke-linejoin="round"/>
<path d="M23.3335 23.3329C23.3335 24.2759 23.7081 25.1803 24.3749 25.8471C25.0417 26.5139 25.9461 26.8885 26.8891 26.8885C27.832 26.8885 28.7364 26.5139 29.4032 25.8471C30.07 25.1803 30.4446 24.2759 30.4446 23.3329C30.4446 22.3899 30.07 21.4855 29.4032 20.8187C28.7364 20.1519 27.832 19.7773 26.8891 19.7773C25.9461 19.7773 25.0417 20.1519 24.3749 20.8187C23.7081 21.4855 23.3335 22.3899 23.3335 23.3329Z" stroke="white" stroke-width="4" stroke-linecap="round" stroke-linejoin="round"/>
<path d="M5.55556 23.3333H2V3.77778C2 3.30628 2.1873 2.8541 2.5207 2.5207C2.8541 2.1873 3.30628 2 3.77778 2H19.7778V23.3333M12.6667 23.3333H23.3333M30.4444 23.3333H34V12.6667M34 12.6667H19.7778M34 12.6667L28.6667 3.77778H19.7778" stroke="white" stroke-width="4" stroke-linecap="round" stroke-linejoin="round"/>
</svg>
