<svg width="36" height="36" viewBox="0 0 36 36" fill="none" xmlns="http://www.w3.org/2000/svg">
<path d="M19.8451 14.5371L32.9079 27.6619C34.3641 29.1127 34.3641 31.4624 32.9079 32.9115C32.2084 33.6073 31.2619 33.9979 30.2752 33.9979C29.2885 33.9979 28.342 33.6073 27.6424 32.9115L14.5371 19.8451" stroke="white" stroke-width="4" stroke-linecap="round" stroke-linejoin="round"/>
<path d="M7.45996 12.7676L14.5372 19.8449" stroke="white" stroke-width="4" stroke-linecap="round" stroke-linejoin="round"/>
<path d="M19.8449 14.5372L12.7676 7.45996" stroke="white" stroke-width="4" stroke-linecap="round" stroke-linejoin="round"/>
<path d="M8.86281 24.7867L2.51803 18.4419C2.18634 18.1101 2 17.6601 2 17.191C2 16.7218 2.18634 16.2719 2.51803 15.9401L6.57508 11.883L7.45974 12.7677L12.7677 7.45974L11.883 6.57508L15.9401 2.51803C16.2719 2.18634 16.7218 2 17.191 2C17.6601 2 18.1101 2.18634 18.4419 2.51803L24.7867 8.86281C25.1184 9.1946 25.3047 9.64455 25.3047 10.1137C25.3047 10.5829 25.1184 11.0328 24.7867 11.3646L20.7296 15.4217L19.845 14.537L14.537 19.845L15.4217 20.7296L11.3646 24.7867C11.0328 25.1184 10.5829 25.3047 10.1137 25.3047C9.64455 25.3047 9.1946 25.1184 8.86281 24.7867Z" stroke="white" stroke-width="4" stroke-linecap="round" stroke-linejoin="round"/>
</svg>
